<svg version="1.2" xmlns="http://www.w3.org/2000/svg" viewBox="0 0 272 272" width="202" height="202">
  <style>.a{fill: currentcolor}</style>
  <path fill-rule="evenodd" class="a"
    d="m211 130c8.9-22.1 3.2-28.1 2-37-1.2-8.9 7.9-12.9 16-10 8.1 2.9 17.1 9.3 16 24-1.1 14.7-19.2 45.8-21 55-1.8 9.2 0.9 22.9 0 25-0.9 2.1-8.8 4.9-15-5-10.3 12-23.8 19.3-34 12-10.2-7.3-13.7-23.4-7-44 6.7-20.6 14.5-25.6 21-28 6.5-2.4 15-2.4 22 8zm-18.2 18.6c-5 7-4.1 19.3 0.2 21.4 4.3 2.1 6.6 0.4 13.9-26.4-2.9-1.6-8.3-3.3-14.1 5z" />
  <path fill-rule="evenodd" class="a"
    d="m126 144c-12.9 27.1-18.3 42.3-20 46-8.5 4.6-11.8-5.4-12-12-0.1-4.9-0.6-26.7 9-48 8.6-19.2 14.7-33.6 11.3-43.3-0.3-1.1-10.3-17.3-7.3-22.7 3-5.4 17.7-13.7 26-5 8.3 8.7 11.2 19.1 11 31-0.2 11.9-10 35-10 35 9-7.2 17.4-3.7 24 3 6.6 6.7 10.7 18.7 3 38-7.7 19.3-14.3 23.8-22 26-7.7 2.2-34.3-12-21.6-22.8 2.8-2.5 10.4 2.6 13 0.5 3.7-2.9 9.6-19.3 7.9-23.6-0.9-2.2-8.1-3-12.3-2.1z" />
  <path fill-rule="evenodd" class="a"
    d="m68.6 146.1l-1.8 1.2c0 0-4.2 10.2-5.8 12.7-2.5 3.9-6.4 11.5-7 14-1.3 5.6 0.4 14.5-4 18-4.4 3.5-14-6.7-12.3-19.3 1.7-12.6 6.2-24.6 6.1-29.1-0.1-5.7-9.5-23.1-1.8-29.6 7.7-6.5 17.2-4.1 21 0 3.8 4.1 5.3 14.8 5.4 14.8 0 0 0.8-0.1 1.8-0.6 2.7-4.2 8.2-11.5 17.7-11.1 14.5 0.7 13.7 12.2 12.7 15.2-0.9 3-9.1 13.6-11.4 16.7-2.4 3-0.7 10.2-6.2 12-5.5 1.8-14.6-4.6-14.6-9-0.1-4.5 0.2-5.9 0.2-5.9z" />
</svg>
