<svg version="1.2" xmlns="http://www.w3.org/2000/svg" viewBox="0 0 272 272" width="272" height="272">
  <g fill="currentColor" fill-rule="evenodd">
    <path
      d="m192.8 172.5c3.4-10.2 15.3-45.1 21.1-62.5 1.7-5.2 3-8.7 2.9-10.1-0.2-3.3-10-7.6-20.9-8.5-12.9-1-24.3 3.6-35.8 10.4 10.2-8.3 23.3-16.5 48.6-16.5 26.1 0 45 2.8 45 2.8-12.7 27.2-19.1 63.1-34.9 77.4-6.3 5.8-15.3 7-26 7zm-68.5 0h-33.3c0.7-1.9 23-67.6 24-71.3 2.3-8.7-35.4-13.3-35.4-13.3l72.7 0.2m-87.9 97.3c-11.6 7-30.4 11.1-41.1 4.4-14.4-15.3 4.8-28.1 13.9-34.5 2.1-1.5 7.1-22.3 11.8-40.7 0.8-3-22.9-6.2-22.9-6.2h57.7l-5.9 19.9c0 0-12.4 42.3-14.2 44.4 0 0-17.7-0.3-21.1 8.4-2.5 8.3 22.4 4.7 38.9-11.3 0.8-0.8 4.2-4.5 4.2-4.5 0 0-7.8 11.9-21.3 20.1z" />
    <path fill-rule="evenodd"
      d="m226.1 172.5h-33.4c0.7-1.9 23-67.6 24-71.3 1.5-5.6-13.3-9.5-24.3-11.6-6.1-1.1-4.4-1.7 5.8-1.6 14.4 0 35.9 0.1 55.8 0.1" />
    <path fill-rule="evenodd" class="a" d="m90.8 173.7l31.6-85.7z" />
    <path fill-rule="evenodd" class="a" d="" />
    <path fill-rule="evenodd"
      d="m68.7 133.8c0 0 11.7-22.8 27.2-26.7 15.5-4 14.2 26.9-4.7 31.6-7.4 1.9-10.9-8.1-10.9-8.1 0 0 6.1-6.2 8.4-11.8 0 0-18.7 9.6-22.3 25.6" />
    <path fill-rule="evenodd"
      d="m137.6 174.1c-10.4-0.6-13.9-16.4-7.8-35.4 6.1-18.9 19.4-33.8 29.8-33.2 10.4 0.6 13.8 16.4 7.7 35.4-6.1 19-19.4 33.8-29.7 33.2zm11.2-34.3c2.7-8.6 1.2-15.8-3.5-16-4.7-0.3-10.8 6.4-13.5 15-2.7 8.6-1.1 15.7 3.5 15.9 4.6 0.3 10.8-6.3 13.5-14.9z" />
    <path fill-rule="evenodd"
      d="m178.3 174.1c-10.4-0.6-13.9-16.4-7.8-35.4 6.1-18.9 19.4-33.8 29.8-33.2 10.4 0.6 13.8 16.4 7.7 35.4-6.1 19-19.4 33.8-29.7 33.2zm28.1-34.3c2.7-8.6 1.3-15.8-3.5-16-4.6-0.3-10.7 6.4-13.4 15-2.8 8.6-1.2 15.7 3.5 15.9 4.6 0.3 10.7-6.3 13.4-14.9z" />
    <path fill-rule="evenodd" class="a" d="" />
    <path fill-rule="evenodd" d="m237.7 136.8c-10.8 30.8-0.9 35.7-0.9 35.7l-34-0.1" />
    <path fill-rule="evenodd" d="m98.7 150.1c0 0-5.6 19.3-12.4 29.8 0 0 6.7-7.5 20.1-7.5" />
  </g>
</svg>
