<svg xmlns="http://www.w3.org/2000/svg" viewBox="0 0 67.089 78.998" width="67.089" height="78.998">
  <g origin="50 50" transform-origin="42% bottom" transform="scale(0.74)">
    <path fill-rule="evenodd" clip-rule="evenodd" d="M 48.001 78.107 C 48.001 79.172 23.816 79.411 23.816 78.108 C 23.816 76.967 23.736 68.232 23.736 64.157 C 10.146 67.091 7.316 58.29 7.316 58.29 C 5.132 52.586 1.896 51.12 1.896 51.12 C -2.552 48.105 2.22 48.105 2.22 48.105 C 7.154 48.431 9.743 53.157 9.743 53.157 C 14.11 60.653 21.147 58.535 23.978 57.231 C 24.382 54.053 25.677 51.853 27.052 50.631 C 16.213 49.49 4.809 45.253 4.809 26.348 C 4.809 20.97 6.749 16.57 9.823 13.148 C 9.338 11.926 7.639 6.873 10.309 0.11 C 10.309 0.11 14.434 -1.194 23.735 5.162 C 27.717 4.085 31.823 3.537 35.949 3.532 C 40.074 3.532 44.279 4.103 48.162 5.162 C 57.464 -1.194 61.589 0.11 61.589 0.11 C 64.259 6.873 62.559 11.926 62.074 13.148 C 65.229 16.57 67.089 20.97 67.089 26.348 C 67.089 45.253 55.685 49.408 44.765 50.631 C 46.545 52.179 48.081 55.112 48.081 59.757 C 48.081 66.357 48.001 76.478 48.001 78.107 Z" style="fill: rgb(255, 255, 255);"></path>
  </g>
</svg>
