<svg xmlns="http://www.w3.org/2000/svg" width="24" height="24" viewBox="0 0 24 24">
  <g transform-origin="center" transform="scale(0.95)">
    <path fill="white" d="M 8 19 L 5 19 L 5 8 L 8 8 L 8 19 Z M 6.5 6.732 C 5.534 6.732 4.75 5.942 4.75 4.968 C 4.75 3.994 5.534 3.204 6.5 3.204 C 7.466 3.204 8.25 3.994 8.25 4.968 C 8.25 5.942 7.467 6.732 6.5 6.732 Z M 20 19 L 17 19 L 17 13.396 C 17 10.028 13 10.283 13 13.396 L 13 19 L 10 19 L 10 8 L 13 8 L 13 9.765 C 14.397 7.179 20 6.988 20 12.241 L 20 19 Z"/>
  </g>
</svg>
